<svg width="32" height="32" viewBox="0 0 32 32" fill="none" xmlns="http://www.w3.org/2000/svg">
<rect width="32" height="32" rx="9" fill="black"/>
<path d="M14.8207 7C14.49 7 14.2033 6.99995 13.6041 8.29233C13.005 9.58471 6.20127 23.3361 6.15065 23.4403C5.76331 24.2374 6.24065 24.7259 6.27912 24.7654C6.31759 24.8049 6.72307 25.2198 7.52128 24.8432C7.72857 24.7454 24.9294 16.5831 24.9294 16.5831C25.6529 16.2107 25.8326 16.3395 25.8775 16.3717C25.9224 16.4039 26.1037 16.5338 25.9178 17.2915C25.7436 17.8645 23.7453 23.7299 23.6146 24.0407C23.3205 24.7404 23.1011 24.7408 22.9914 24.7404C22.8817 24.74 22.6485 24.7404 22.388 24.0407C22.388 24.0407 16.6075 9.58468 16.0723 8.29233C15.5371 6.99997 15.1514 7 14.8207 7Z" stroke="white" stroke-width="1.5" stroke-linecap="square" stroke-linejoin="round"/>
</svg>
