<svg width="512" height="512" viewBox="0 0 512 512" fill="none" xmlns="http://www.w3.org/2000/svg">
<g clip-path="url(#clip0_931_4)">
<path d="M234.655 97C228.669 97 223.48 96.9984 212.634 119.76C201.79 142.52 78.6441 384.697 77.7265 386.531C70.7163 400.57 79.3555 409.172 80.0527 409.868C80.7484 410.564 88.0875 417.871 102.536 411.237C106.288 409.516 417.622 265.769 417.622 265.769C430.717 259.209 433.971 261.479 434.783 262.046C435.596 262.612 438.877 264.901 435.513 278.246C432.361 288.336 396.19 391.631 393.825 397.105C388.5 409.427 384.529 409.434 382.545 409.427C380.558 409.421 376.337 409.427 371.625 397.105C371.625 397.105 266.996 142.518 257.31 119.76C247.623 97 240.641 97 234.655 97Z" stroke="#191717" stroke-width="33" stroke-linecap="square" stroke-linejoin="round"/>
</g>
<defs>
<clipPath id="clip0_931_4">
<rect width="512" height="512" fill="white"/>
</clipPath>
</defs>
</svg>
