<svg width="512" height="512" viewBox="0 0 512 512" fill="none" xmlns="http://www.w3.org/2000/svg">
<rect width="512" height="512" fill="white"/>
<path d="M242.438 155C238.635 155 235.338 154.999 228.447 169.461C221.557 183.922 143.315 337.794 142.732 338.959C138.278 347.879 143.767 353.345 144.21 353.787C144.652 354.229 149.315 358.872 158.495 354.657C160.879 353.563 358.688 262.231 358.688 262.231C367.008 258.063 369.075 259.505 369.591 259.865C370.108 260.225 372.192 261.679 370.055 270.158C368.052 276.569 345.071 342.2 343.568 345.678C340.185 353.507 337.662 353.511 336.401 353.507C335.139 353.503 332.457 353.507 329.463 345.678C329.463 345.678 262.986 183.921 256.832 169.461C250.677 155 246.241 155 242.438 155Z" stroke="black" stroke-width="20" stroke-linecap="square" stroke-linejoin="round"/>
</svg>
